<svg xmlns="http://www.w3.org/2000/svg" width="296" height="341" viewBox="0 0 296 341">
      <style>
        .pet { transform-origin: center; }
      </style>
      <!-- Theme Background -->
      
        <rect x="5" y="5" width="286" height="326" rx="12" ry="12" fill="rgba(45, 51, 59, 0.15)"/>
      
      <!-- Weather Effects (behind pet) -->
      <g class="weather-layer" style="pointer-events: none;">
        
        <g>
          <circle cx="169.24852806922735" cy="43.1974170224146" r="3" fill="#FFEB3B" opacity="0.8">
          <animate attributeName="cx" values="169.24852806922735;149.3611618571144;169.24852806922735" dur="3.0745887804373613s" repeatCount="indefinite"/>
          <animate attributeName="cy" values="43.1974170224146;23.853876966052468;43.1974170224146" dur="3.0745887804373613s" repeatCount="indefinite"/>
          <animate attributeName="opacity" values="0.3;0.9;0.3" dur="1.5s" repeatCount="indefinite"/>
        </circle><circle cx="231.0876763648248" cy="284.47428857789004" r="3" fill="#FFEB3B" opacity="0.8">
          <animate attributeName="cx" values="231.0876763648248;248.1522833744398;231.0876763648248" dur="6.586640812296223s" repeatCount="indefinite"/>
          <animate attributeName="cy" values="284.47428857789004;306.66428217224245;284.47428857789004" dur="6.586640812296223s" repeatCount="indefinite"/>
          <animate attributeName="opacity" values="0.3;0.9;0.3" dur="1.5s" repeatCount="indefinite"/>
        </circle><circle cx="269.4604723840496" cy="87.23626380746882" r="3" fill="#FFEB3B" opacity="0.8">
          <animate attributeName="cx" values="269.4604723840496;274.84736616952426;269.4604723840496" dur="3.6847848812775696s" repeatCount="indefinite"/>
          <animate attributeName="cy" values="87.23626380746882;73.7782257955128;87.23626380746882" dur="3.6847848812775696s" repeatCount="indefinite"/>
          <animate attributeName="opacity" values="0.3;0.9;0.3" dur="1.5s" repeatCount="indefinite"/>
        </circle><circle cx="187.6838620792243" cy="266.10472125797395" r="3" fill="#FFEB3B" opacity="0.8">
          <animate attributeName="cx" values="187.6838620792243;176.6963978149845;187.6838620792243" dur="5.337581809730498s" repeatCount="indefinite"/>
          <animate attributeName="cy" values="266.10472125797395;272.3347568341564;266.10472125797395" dur="5.337581809730498s" repeatCount="indefinite"/>
          <animate attributeName="opacity" values="0.3;0.9;0.3" dur="1.5s" repeatCount="indefinite"/>
        </circle><circle cx="26.610871502331463" cy="193.62921187814038" r="3" fill="#FFEB3B" opacity="0.8">
          <animate attributeName="cx" values="26.610871502331463;27.613066871117383;26.610871502331463" dur="4.662800764124646s" repeatCount="indefinite"/>
          <animate attributeName="cy" values="193.62921187814038;170.3309224224463;193.62921187814038" dur="4.662800764124646s" repeatCount="indefinite"/>
          <animate attributeName="opacity" values="0.3;0.9;0.3" dur="1.5s" repeatCount="indefinite"/>
        </circle><circle cx="76.08744226629648" cy="171.1072964737775" r="3" fill="#FFEB3B" opacity="0.8">
          <animate attributeName="cx" values="76.08744226629648;67.00696227822267;76.08744226629648" dur="5.027335027527942s" repeatCount="indefinite"/>
          <animate attributeName="cy" values="171.1072964737775;166.85090044298389;171.1072964737775" dur="5.027335027527942s" repeatCount="indefinite"/>
          <animate attributeName="opacity" values="0.3;0.9;0.3" dur="1.5s" repeatCount="indefinite"/>
        </circle><circle cx="199.63047406457673" cy="153.63285191390403" r="3" fill="#FFEB3B" opacity="0.8">
          <animate attributeName="cx" values="199.63047406457673;180.04180045883368;199.63047406457673" dur="4.739298489249317s" repeatCount="indefinite"/>
          <animate attributeName="cy" values="153.63285191390403;126.69672364970782;153.63285191390403" dur="4.739298489249317s" repeatCount="indefinite"/>
          <animate attributeName="opacity" values="0.3;0.9;0.3" dur="1.5s" repeatCount="indefinite"/>
        </circle><circle cx="159.11141697995265" cy="200.06351714766487" r="3" fill="#FFEB3B" opacity="0.8">
          <animate attributeName="cx" values="159.11141697995265;145.74930491894142;159.11141697995265" dur="5.939423374740188s" repeatCount="indefinite"/>
          <animate attributeName="cy" values="200.06351714766487;192.8143698176994;200.06351714766487" dur="5.939423374740188s" repeatCount="indefinite"/>
          <animate attributeName="opacity" values="0.3;0.9;0.3" dur="1.5s" repeatCount="indefinite"/>
        </circle><circle cx="83.40404920721835" cy="280.6629084882062" r="3" fill="#FFEB3B" opacity="0.8">
          <animate attributeName="cx" values="83.40404920721835;67.00303378467446;83.40404920721835" dur="3.279240602918957s" repeatCount="indefinite"/>
          <animate attributeName="cy" values="280.6629084882062;301.041404127642;280.6629084882062" dur="3.279240602918957s" repeatCount="indefinite"/>
          <animate attributeName="opacity" values="0.3;0.9;0.3" dur="1.5s" repeatCount="indefinite"/>
        </circle><circle cx="241.26083689157934" cy="236.72214202226522" r="3" fill="#FFEB3B" opacity="0.8">
          <animate attributeName="cx" values="241.26083689157934;250.1097645315674;241.26083689157934" dur="5.403052133610637s" repeatCount="indefinite"/>
          <animate attributeName="cy" values="236.72214202226522;246.687562138752;236.72214202226522" dur="5.403052133610637s" repeatCount="indefinite"/>
          <animate attributeName="opacity" values="0.3;0.9;0.3" dur="1.5s" repeatCount="indefinite"/>
        </circle>
        </g>
      
      </g>
      <!-- Evolution Effects (behind pet) -->
      <g class="evolution-layer" style="pointer-events: none;">
        
      </g>
      <g transform="translate(20, 20)" opacity="0.7">
        <g class="pet">
            <rect x="80" y="0" width="16" height="16" fill="#2d333b" /><rect x="112" y="0" width="16" height="16" fill="#2d333b" /><rect x="144" y="0" width="16" height="16" fill="#2d333b" /><rect x="48" y="16" width="16" height="16" fill="#2d333b" /><rect x="80" y="16" width="16" height="16" fill="#00ADD8" /><rect x="112" y="16" width="16" height="16" fill="#00ADD8" /><rect x="144" y="16" width="16" height="16" fill="#00ADD8" /><rect x="176" y="16" width="16" height="16" fill="#00ADD8" /><rect x="208" y="16" width="16" height="16" fill="#2d333b" /><rect x="32" y="32" width="16" height="16" fill="#2d333b" /><rect x="64" y="32" width="16" height="16" fill="#00ADD8" /><rect x="96" y="32" width="16" height="16" fill="#00ADD8" /><rect x="128" y="32" width="16" height="16" fill="#00ADD8" /><rect x="160" y="32" width="16" height="16" fill="#00ADD8" /><rect x="192" y="32" width="16" height="16" fill="#00ADD8" /><rect x="16" y="48" width="16" height="16" fill="#2d333b" /><rect x="48" y="48" width="16" height="16" fill="#00ADD8" /><rect x="80" y="48" width="16" height="16" fill="#2d333b" /><rect x="112" y="48" width="16" height="16" fill="#2d333b" /><rect x="144" y="48" width="16" height="16" fill="#00ADD8" /><rect x="176" y="48" width="16" height="16" fill="#00ADD8" /><rect x="208" y="48" width="16" height="16" fill="#2d333b" /><rect x="16" y="64" width="16" height="16" fill="#2d333b" /><rect x="48" y="64" width="16" height="16" fill="#00ADD8" /><rect x="80" y="64" width="16" height="16" fill="#2d333b" /><rect x="112" y="64" width="16" height="16" fill="#2d333b" /><rect x="144" y="64" width="16" height="16" fill="#00ADD8" /><rect x="176" y="64" width="16" height="16" fill="#00ADD8" /><rect x="208" y="64" width="16" height="16" fill="#2d333b" /><rect x="0" y="80" width="16" height="16" fill="#2d333b" /><rect x="32" y="80" width="16" height="16" fill="#00ADD8" /><rect x="64" y="80" width="16" height="16" fill="#00ADD8" /><rect x="96" y="80" width="16" height="16" fill="#00ADD8" /><rect x="128" y="80" width="16" height="16" fill="#00ADD8" /><rect x="160" y="80" width="16" height="16" fill="#00ADD8" /><rect x="192" y="80" width="16" height="16" fill="#2d333b" /><rect x="224" y="80" width="16" height="16" fill="#2d333b" /><rect x="0" y="96" width="16" height="16" fill="#2d333b" /><rect x="32" y="96" width="16" height="16" fill="#00ADD8" /><rect x="64" y="96" width="16" height="16" fill="#00ADD8" /><rect x="96" y="96" width="16" height="16" fill="#00ADD8" /><rect x="128" y="96" width="16" height="16" fill="#2d333b" /><rect x="160" y="96" width="16" height="16" fill="#00ADD8" /><rect x="192" y="96" width="16" height="16" fill="#00ADD8" /><rect x="224" y="96" width="16" height="16" fill="#2d333b" /><rect x="16" y="112" width="16" height="16" fill="#2d333b" /><rect x="48" y="112" width="16" height="16" fill="#00ADD8" /><rect x="80" y="112" width="16" height="16" fill="#00ADD8" /><rect x="112" y="112" width="16" height="16" fill="#2d333b" /><rect x="144" y="112" width="16" height="16" fill="#00ADD8" /><rect x="176" y="112" width="16" height="16" fill="#00ADD8" /><rect x="208" y="112" width="16" height="16" fill="#00ADD8" /><rect x="240" y="112" width="16" height="16" fill="#2d333b" /><rect x="32" y="128" width="16" height="16" fill="#2d333b" /><rect x="64" y="128" width="16" height="16" fill="#00ADD8" /><rect x="96" y="128" width="16" height="16" fill="#2d333b" /><rect x="128" y="128" width="16" height="16" fill="#00ADD8" /><rect x="160" y="128" width="16" height="16" fill="#00ADD8" /><rect x="192" y="128" width="16" height="16" fill="#00ADD8" /><rect x="224" y="128" width="16" height="16" fill="#2d333b" /><rect x="32" y="144" width="16" height="16" fill="#2d333b" /><rect x="64" y="144" width="16" height="16" fill="#00ADD8" /><rect x="96" y="144" width="16" height="16" fill="#2d333b" /><rect x="128" y="144" width="16" height="16" fill="#00ADD8" /><rect x="160" y="144" width="16" height="16" fill="#00ADD8" /><rect x="192" y="144" width="16" height="16" fill="#00ADD8" /><rect x="224" y="144" width="16" height="16" fill="#2d333b" /><rect x="16" y="160" width="16" height="16" fill="#2d333b" /><rect x="48" y="160" width="16" height="16" fill="#00ADD8" /><rect x="80" y="160" width="16" height="16" fill="#2d333b" /><rect x="112" y="160" width="16" height="16" fill="#00ADD8" /><rect x="144" y="160" width="16" height="16" fill="#00ADD8" /><rect x="176" y="160" width="16" height="16" fill="#00ADD8" /><rect x="208" y="160" width="16" height="16" fill="#2d333b" /><rect x="0" y="176" width="16" height="16" fill="#2d333b" /><rect x="32" y="176" width="16" height="16" fill="#00ADD8" /><rect x="64" y="176" width="16" height="16" fill="#2d333b" /><rect x="96" y="176" width="16" height="16" fill="#00ADD8" /><rect x="128" y="176" width="16" height="16" fill="#00ADD8" /><rect x="160" y="176" width="16" height="16" fill="#00ADD8" /><rect x="192" y="176" width="16" height="16" fill="#2d333b" /><rect x="16" y="192" width="16" height="16" fill="#2d333b" /><rect x="48" y="192" width="16" height="16" fill="#2d333b" /><rect x="80" y="192" width="16" height="16" fill="#00ADD8" /><rect x="112" y="192" width="16" height="16" fill="#00ADD8" /><rect x="144" y="192" width="16" height="16" fill="#00ADD8" /><rect x="176" y="192" width="16" height="16" fill="#2d333b" /><rect x="32" y="208" width="16" height="16" fill="#2d333b" /><rect x="64" y="208" width="16" height="16" fill="#2d333b" /><rect x="96" y="208" width="16" height="16" fill="#2d333b" /><rect x="128" y="208" width="16" height="16" fill="#2d333b" /><rect x="160" y="208" width="16" height="16" fill="#2d333b" />
            
        <animateTransform 
            attributeName="transform" 
            type="translate" 
            values="0 0; 0 -8; 0 0" 
            dur="3s" 
            repeatCount="indefinite" 
        />
        <animate
            attributeName="opacity"
            values="0.7; 0.4; 0.7"
            dur="2s"
            repeatCount="indefinite"
        />
        </g>
        <!-- Speech Bubble -->
        
    <g transform="translate(226, -25)">
      <!-- Speech bubble -->
      <rect x="0" y="0" width="125" height="24" rx="10" ry="10" 
            fill="#FFFFFF" stroke="#2d333b" stroke-width="1.5"/>
      <!-- Bubble tail -->
      <polygon points="15,24 20,32 25,24" 
               fill="#FFFFFF" stroke="#2d333b" stroke-width="1.5"/>
      <line x1="16" y1="24" x2="24" y2="24" stroke="#FFFFFF" stroke-width="2"/>
      <!-- Text -->
      <text x="62.5" y="16" 
            font-family="'Segoe UI', Arial, sans-serif" font-size="10" 
            fill="#2d333b" text-anchor="middle">*fading sounds*</text>
    </g>
  
        <!-- Seasonal Accessory (z-index: above pet) -->
        
      </g>
      
      <!-- Level & Mood Text -->
      <text x="20" y="299" font-family="monospace" font-size="11" fill="#666">
        💀 Lv.0 
      </text>
      <text x="276" y="299" text-anchor="end" font-family="monospace" font-size="11" fill="#666">
        👻 GHOST 
      </text>
      
      <!-- XP Progress Bar -->
      <rect x="20" y="306" width="256" height="8" rx="4" fill="#e0e0e0" stroke="#0288d1" stroke-width="1"/>
      <rect x="20" y="306" width="0" height="8" rx="4" fill="#e53935">
        
      </rect>
      
      <!-- XP Text -->
      <text x="50%" y="329" text-anchor="middle" font-family="monospace" font-size="9" fill="#666">
        💀 DEAD - Commit to revive!
      </text>
    
      
      <!-- Achievement Badges -->
      <g transform="translate(15, 311)">
    <g class="achievements">
      
      <g transform="translate(5, 0)">
        <title>Weekend Warrior: Weekend commit</title>
        <circle cx="10" cy="10" r="10" fill="rgba(255,255,255,0.9)" stroke="#ddd" stroke-width="1"/>
        <text x="10" y="14" text-anchor="middle" font-size="11">🏖️</text>
      </g>
    
      
    </g>
  </g>
    </svg>