<svg xmlns="http://www.w3.org/2000/svg" width="296" height="341" viewBox="0 0 296 341">
      <style>
        .pet { transform-origin: center; }
      </style>
      <!-- Theme Background -->
      
        <rect x="5" y="5" width="286" height="326" rx="12" ry="12" fill="rgba(45, 51, 59, 0.15)"/>
      
      <!-- Weather Effects (behind pet) -->
      <g class="weather-layer" style="pointer-events: none;">
        
        <g>
          <circle cx="57.22559813687059" cy="37.05318327480704" r="3" fill="#FFEB3B" opacity="0.8">
          <animate attributeName="cx" values="57.22559813687059;66.17390912996275;57.22559813687059" dur="3.276010182137748s" repeatCount="indefinite"/>
          <animate attributeName="cy" values="37.05318327480704;65.57675464825734;37.05318327480704" dur="3.276010182137748s" repeatCount="indefinite"/>
          <animate attributeName="opacity" values="0.3;0.9;0.3" dur="1.5s" repeatCount="indefinite"/>
        </circle><circle cx="175.14716949903016" cy="223.2734153490918" r="3" fill="#FFEB3B" opacity="0.8">
          <animate attributeName="cx" values="175.14716949903016;185.02388289476895;175.14716949903016" dur="5.413262092354395s" repeatCount="indefinite"/>
          <animate attributeName="cy" values="223.2734153490918;214.89112848136068;223.2734153490918" dur="5.413262092354395s" repeatCount="indefinite"/>
          <animate attributeName="opacity" values="0.3;0.9;0.3" dur="1.5s" repeatCount="indefinite"/>
        </circle><circle cx="185.62659882691452" cy="107.01984948181263" r="3" fill="#FFEB3B" opacity="0.8">
          <animate attributeName="cx" values="185.62659882691452;174.05572529666233;185.62659882691452" dur="3.980313020925684s" repeatCount="indefinite"/>
          <animate attributeName="cy" values="107.01984948181263;83.00727037860545;107.01984948181263" dur="3.980313020925684s" repeatCount="indefinite"/>
          <animate attributeName="opacity" values="0.3;0.9;0.3" dur="1.5s" repeatCount="indefinite"/>
        </circle><circle cx="261.9640148582199" cy="233.6892171590777" r="3" fill="#FFEB3B" opacity="0.8">
          <animate attributeName="cx" values="261.9640148582199;242.3768466903063;261.9640148582199" dur="4.808630904762628s" repeatCount="indefinite"/>
          <animate attributeName="cy" values="233.6892171590777;246.08448590829803;233.6892171590777" dur="4.808630904762628s" repeatCount="indefinite"/>
          <animate attributeName="opacity" values="0.3;0.9;0.3" dur="1.5s" repeatCount="indefinite"/>
        </circle><circle cx="162.4796230014191" cy="76.15581994862744" r="3" fill="#FFEB3B" opacity="0.8">
          <animate attributeName="cx" values="162.4796230014191;168.32306370561267;162.4796230014191" dur="4.581883404726324s" repeatCount="indefinite"/>
          <animate attributeName="cy" values="76.15581994862744;49.90495965315826;76.15581994862744" dur="4.581883404726324s" repeatCount="indefinite"/>
          <animate attributeName="opacity" values="0.3;0.9;0.3" dur="1.5s" repeatCount="indefinite"/>
        </circle><circle cx="55.087044934220955" cy="220.38354299192775" r="3" fill="#FFEB3B" opacity="0.8">
          <animate attributeName="cx" values="55.087044934220955;76.55456844072461;55.087044934220955" dur="6.676146962602545s" repeatCount="indefinite"/>
          <animate attributeName="cy" values="220.38354299192775;236.47570065474193;220.38354299192775" dur="6.676146962602545s" repeatCount="indefinite"/>
          <animate attributeName="opacity" values="0.3;0.9;0.3" dur="1.5s" repeatCount="indefinite"/>
        </circle><circle cx="80.65875473881061" cy="28.265303568869086" r="3" fill="#FFEB3B" opacity="0.8">
          <animate attributeName="cx" values="80.65875473881061;56.116951202858004;80.65875473881061" dur="6.559109924606155s" repeatCount="indefinite"/>
          <animate attributeName="cy" values="28.265303568869086;30.99023201302329;28.265303568869086" dur="6.559109924606155s" repeatCount="indefinite"/>
          <animate attributeName="opacity" values="0.3;0.9;0.3" dur="1.5s" repeatCount="indefinite"/>
        </circle><circle cx="272.7431818052881" cy="258.5622348927988" r="3" fill="#FFEB3B" opacity="0.8">
          <animate attributeName="cx" values="272.7431818052881;299.65252434049467;272.7431818052881" dur="4.853839446477612s" repeatCount="indefinite"/>
          <animate attributeName="cy" values="258.5622348927988;265.62430990269246;258.5622348927988" dur="4.853839446477612s" repeatCount="indefinite"/>
          <animate attributeName="opacity" values="0.3;0.9;0.3" dur="1.5s" repeatCount="indefinite"/>
        </circle><circle cx="155.14854236067907" cy="101.65528461344093" r="3" fill="#FFEB3B" opacity="0.8">
          <animate attributeName="cx" values="155.14854236067907;173.81631695083325;155.14854236067907" dur="3.473758113160006s" repeatCount="indefinite"/>
          <animate attributeName="cy" values="101.65528461344093;77.21049435638378;101.65528461344093" dur="3.473758113160006s" repeatCount="indefinite"/>
          <animate attributeName="opacity" values="0.3;0.9;0.3" dur="1.5s" repeatCount="indefinite"/>
        </circle><circle cx="34.133332224530534" cy="180.7052558347608" r="3" fill="#FFEB3B" opacity="0.8">
          <animate attributeName="cx" values="34.133332224530534;49.17865280456977;34.133332224530534" dur="4.746405834881449s" repeatCount="indefinite"/>
          <animate attributeName="cy" values="180.7052558347608;200.0989473895512;180.7052558347608" dur="4.746405834881449s" repeatCount="indefinite"/>
          <animate attributeName="opacity" values="0.3;0.9;0.3" dur="1.5s" repeatCount="indefinite"/>
        </circle>
        </g>
      
      </g>
      <!-- Evolution Effects (behind pet) -->
      <g class="evolution-layer" style="pointer-events: none;">
        
      </g>
      <g transform="translate(20, 20)" opacity="0.7">
        <g class="pet">
            <rect x="80" y="0" width="16" height="16" fill="#2d333b" /><rect x="112" y="0" width="16" height="16" fill="#2d333b" /><rect x="144" y="0" width="16" height="16" fill="#2d333b" /><rect x="48" y="16" width="16" height="16" fill="#2d333b" /><rect x="80" y="16" width="16" height="16" fill="#00ADD8" /><rect x="112" y="16" width="16" height="16" fill="#00ADD8" /><rect x="144" y="16" width="16" height="16" fill="#00ADD8" /><rect x="176" y="16" width="16" height="16" fill="#00ADD8" /><rect x="208" y="16" width="16" height="16" fill="#2d333b" /><rect x="32" y="32" width="16" height="16" fill="#2d333b" /><rect x="64" y="32" width="16" height="16" fill="#00ADD8" /><rect x="96" y="32" width="16" height="16" fill="#00ADD8" /><rect x="128" y="32" width="16" height="16" fill="#00ADD8" /><rect x="160" y="32" width="16" height="16" fill="#00ADD8" /><rect x="192" y="32" width="16" height="16" fill="#00ADD8" /><rect x="16" y="48" width="16" height="16" fill="#2d333b" /><rect x="48" y="48" width="16" height="16" fill="#00ADD8" /><rect x="80" y="48" width="16" height="16" fill="#2d333b" /><rect x="112" y="48" width="16" height="16" fill="#2d333b" /><rect x="144" y="48" width="16" height="16" fill="#00ADD8" /><rect x="176" y="48" width="16" height="16" fill="#00ADD8" /><rect x="208" y="48" width="16" height="16" fill="#2d333b" /><rect x="16" y="64" width="16" height="16" fill="#2d333b" /><rect x="48" y="64" width="16" height="16" fill="#00ADD8" /><rect x="80" y="64" width="16" height="16" fill="#2d333b" /><rect x="112" y="64" width="16" height="16" fill="#2d333b" /><rect x="144" y="64" width="16" height="16" fill="#00ADD8" /><rect x="176" y="64" width="16" height="16" fill="#00ADD8" /><rect x="208" y="64" width="16" height="16" fill="#2d333b" /><rect x="0" y="80" width="16" height="16" fill="#2d333b" /><rect x="32" y="80" width="16" height="16" fill="#00ADD8" /><rect x="64" y="80" width="16" height="16" fill="#00ADD8" /><rect x="96" y="80" width="16" height="16" fill="#00ADD8" /><rect x="128" y="80" width="16" height="16" fill="#00ADD8" /><rect x="160" y="80" width="16" height="16" fill="#00ADD8" /><rect x="192" y="80" width="16" height="16" fill="#2d333b" /><rect x="224" y="80" width="16" height="16" fill="#2d333b" /><rect x="0" y="96" width="16" height="16" fill="#2d333b" /><rect x="32" y="96" width="16" height="16" fill="#00ADD8" /><rect x="64" y="96" width="16" height="16" fill="#00ADD8" /><rect x="96" y="96" width="16" height="16" fill="#00ADD8" /><rect x="128" y="96" width="16" height="16" fill="#2d333b" /><rect x="160" y="96" width="16" height="16" fill="#00ADD8" /><rect x="192" y="96" width="16" height="16" fill="#00ADD8" /><rect x="224" y="96" width="16" height="16" fill="#2d333b" /><rect x="16" y="112" width="16" height="16" fill="#2d333b" /><rect x="48" y="112" width="16" height="16" fill="#00ADD8" /><rect x="80" y="112" width="16" height="16" fill="#00ADD8" /><rect x="112" y="112" width="16" height="16" fill="#2d333b" /><rect x="144" y="112" width="16" height="16" fill="#00ADD8" /><rect x="176" y="112" width="16" height="16" fill="#00ADD8" /><rect x="208" y="112" width="16" height="16" fill="#00ADD8" /><rect x="240" y="112" width="16" height="16" fill="#2d333b" /><rect x="32" y="128" width="16" height="16" fill="#2d333b" /><rect x="64" y="128" width="16" height="16" fill="#00ADD8" /><rect x="96" y="128" width="16" height="16" fill="#2d333b" /><rect x="128" y="128" width="16" height="16" fill="#00ADD8" /><rect x="160" y="128" width="16" height="16" fill="#00ADD8" /><rect x="192" y="128" width="16" height="16" fill="#00ADD8" /><rect x="224" y="128" width="16" height="16" fill="#2d333b" /><rect x="32" y="144" width="16" height="16" fill="#2d333b" /><rect x="64" y="144" width="16" height="16" fill="#00ADD8" /><rect x="96" y="144" width="16" height="16" fill="#2d333b" /><rect x="128" y="144" width="16" height="16" fill="#00ADD8" /><rect x="160" y="144" width="16" height="16" fill="#00ADD8" /><rect x="192" y="144" width="16" height="16" fill="#00ADD8" /><rect x="224" y="144" width="16" height="16" fill="#2d333b" /><rect x="16" y="160" width="16" height="16" fill="#2d333b" /><rect x="48" y="160" width="16" height="16" fill="#00ADD8" /><rect x="80" y="160" width="16" height="16" fill="#2d333b" /><rect x="112" y="160" width="16" height="16" fill="#00ADD8" /><rect x="144" y="160" width="16" height="16" fill="#00ADD8" /><rect x="176" y="160" width="16" height="16" fill="#00ADD8" /><rect x="208" y="160" width="16" height="16" fill="#2d333b" /><rect x="0" y="176" width="16" height="16" fill="#2d333b" /><rect x="32" y="176" width="16" height="16" fill="#00ADD8" /><rect x="64" y="176" width="16" height="16" fill="#2d333b" /><rect x="96" y="176" width="16" height="16" fill="#00ADD8" /><rect x="128" y="176" width="16" height="16" fill="#00ADD8" /><rect x="160" y="176" width="16" height="16" fill="#00ADD8" /><rect x="192" y="176" width="16" height="16" fill="#2d333b" /><rect x="16" y="192" width="16" height="16" fill="#2d333b" /><rect x="48" y="192" width="16" height="16" fill="#2d333b" /><rect x="80" y="192" width="16" height="16" fill="#00ADD8" /><rect x="112" y="192" width="16" height="16" fill="#00ADD8" /><rect x="144" y="192" width="16" height="16" fill="#00ADD8" /><rect x="176" y="192" width="16" height="16" fill="#2d333b" /><rect x="32" y="208" width="16" height="16" fill="#2d333b" /><rect x="64" y="208" width="16" height="16" fill="#2d333b" /><rect x="96" y="208" width="16" height="16" fill="#2d333b" /><rect x="128" y="208" width="16" height="16" fill="#2d333b" /><rect x="160" y="208" width="16" height="16" fill="#2d333b" />
            
        <animateTransform 
            attributeName="transform" 
            type="translate" 
            values="0 0; 0 -8; 0 0" 
            dur="3s" 
            repeatCount="indefinite" 
        />
        <animate
            attributeName="opacity"
            values="0.7; 0.4; 0.7"
            dur="2s"
            repeatCount="indefinite"
        />
        </g>
        <!-- Speech Bubble -->
        
    <g transform="translate(226, -25)">
      <!-- Speech bubble -->
      <rect x="0" y="0" width="146" height="24" rx="10" ry="10" 
            fill="#FFFFFF" stroke="#2d333b" stroke-width="1.5"/>
      <!-- Bubble tail -->
      <polygon points="15,24 20,32 25,24" 
               fill="#FFFFFF" stroke="#2d333b" stroke-width="1.5"/>
      <line x1="16" y1="24" x2="24" y2="24" stroke="#FFFFFF" stroke-width="2"/>
      <!-- Text -->
      <text x="73" y="16" 
            font-family="'Segoe UI', Arial, sans-serif" font-size="10" 
            fill="#2d333b" text-anchor="middle">I'm fading away...</text>
    </g>
  
        <!-- Seasonal Accessory (z-index: above pet) -->
        
      </g>
      
      <!-- Level & Mood Text -->
      <text x="20" y="299" font-family="monospace" font-size="11" fill="#666">
        💀 Lv.0 
      </text>
      <text x="276" y="299" text-anchor="end" font-family="monospace" font-size="11" fill="#666">
        👻 GHOST 
      </text>
      
      <!-- XP Progress Bar -->
      <rect x="20" y="306" width="256" height="8" rx="4" fill="#e0e0e0" stroke="#0288d1" stroke-width="1"/>
      <rect x="20" y="306" width="0" height="8" rx="4" fill="#e53935">
        
      </rect>
      
      <!-- XP Text -->
      <text x="50%" y="329" text-anchor="middle" font-family="monospace" font-size="9" fill="#666">
        💀 DEAD - Commit to revive!
      </text>
    
      
      <!-- Achievement Badges -->
      
    </svg>